<svg viewBox="0 0 20 20" version="1.1" xmlns="http://www.w3.org/2000/svg">
  <defs>
    <linearGradient id="Gradient" x1="0%" y1="0%" x2="0%" y2="100%">
      <stop offset="0%" stop-color="#F06" />
      <stop offset="100%" stop-color="#B06" />
    </linearGradient>
  </defs>
  <path
    fill="url(#Gradient)"
    d="M 8,0
       A 3 3 0 0 0 5,3
       L 5,4
       A 2 2 0 0 1 3,6
       A 2 2 0 0 1 3,10
       A 2 2 0 0 1 5,12
       L 5,17
       A 3 3 0 0 0 8,20
       L 5,20
       A 3 3 0 0 1 2,17
       L 2,12
       A 2 2 0 0 0 0,10
       A 2 2 0 0 0 0,6
       A 2 2 0 0 0 2,4
       L 2,3
       A 3 3 0 0 1 5,0
       Z
       M 12,0
       A 3 3 0 0 1 15,3
       L 15,4
       A 2 2 0 0 0 17,6
       A 2 2 0 0 0 17,10
       A 2 2 0 0 0 17,14
       A 2 2 0 0 0 15,16
       L 15,17
       A 3 3 0 0 1 12,20
       L 15,20
       A 3 3 0 0 0 18,17
       L 18,16
       A 2 2 0 0 1 20,14
       A 2 2 0 0 1 20,10
       A 2 2 0 0 1 20,6
       A 2 2 0 0 1 18,4
       L 18,3
       A 3 3 0 0 0 15,0
       Z" />
</svg>
